# xmcd
#
# Track frame offsets:
#	150
#	24020
#	46330
#	74570
#	100305
#	127085
#	148995
#	174672
#	193922
#	221887
#
# Disc length: 3178 seconds
#
# Revision: 0
# Processed by: cddbd v1.5.2PL0 Copyright (c) Steve Scherf et al.
# Submitted via: EasyCDDAExtractor 16.0.9.1
#
DISCID=a00c680a
DTITLE=Various Artist - AsiaCD093 - Có Tin Vui Giữa Giờ Tuyệt Vọng
DYEAR=1997
DGENRE=Pop
TTITLE0=Khánh Ly - Có Tin Vui Giữa Giờ Tuyệt Vọng
TTITLE1=Johnny Dũng, Nhật Quân, Nini - Liên Khúc Mùa Xuân: Xuân Yêu Thương and Đ
TTITLE1=iệp Khúc Mùa Xuân
TTITLE2=Lệ Thu - Hoài Cảm
TTITLE3=Thanh Mai - Ai Lên Xứ Hoa Đào
TTITLE4=Duy Quang - Đưa Em Tìm Động Hoa Vàng
TTITLE5=Lê Uyên and Phương - Uống Nước Bên Bờ Suối
TTITLE6=Hoàng Oanh - Hoa Xuân
TTITLE7=Công Thành and Lynn - Thuyền Hoa
TTITLE8=Phương Dung - Những Đồi Hoa Sim
TTITLE9=Trúc Hồ - Marc Ovellette - La Lá Song
EXTD=
EXTT0=
EXTT1=
EXTT2=
EXTT3=
EXTT4=
EXTT5=
EXTT6=
EXTT7=
EXTT8=
EXTT9=
PLAYORDER=
